PathFileType	4	(X/Y/Z)	/Users/niels/Desktop/University/Third Semester/Perception and Action/Exam/Gymnastics Motion Tracking/Code for Gym Tracking/Scripts/Analyzed Data/Start Salto/st_salto_bad_id5_1_Sports2D/st_salto_bad_id5_1_Sports2D_px_person00.trc
DataRate	CameraRate	NumFrames	NumMarkers	Units	OrigDataRate	OrigDataStartFrame	OrigNumFrames
29.886363636363633	29.886363636363633	8	22	m	29.886363636363633	198	264
Frame#	Time	Hip			RHip			RKnee			RAnkle			RBigToe			RSmallToe			RHeel			LHip			LKnee			LAnkle			LBigToe			LSmallToe			LHeel			Neck			Head			Nose			RShoulder			RElbow			RWrist			LShoulder			LElbow			LWrist		
		X1	Y1	Z1	X2	Y2	Z2	X3	Y3	Z3	X4	Y4	Z4	X5	Y5	Z5	X6	Y6	Z6	X7	Y7	Z7	X8	Y8	Z8	X9	Y9	Z9	X10	Y10	Z10	X11	Y11	Z11	X12	Y12	Z12	X13	Y13	Z13	X14	Y14	Z14	X15	Y15	Z15	X16	Y16	Z16	X17	Y17	Z17	X18	Y18	Z18	X19	Y19	Z19	X20	Y20	Z20	X21	Y21	Z21	X22	Y22	Z22
198	6.625095057034222	1.3403490604306676	-0.5936595369379478	0.0	1.3305567146507993	-0.5977791444736756	0.0	1.4895119807772534	-0.6492113597861078	0.0	1.4155548174347046	-0.7722631406018732	0.0	1.4566676914903287	-0.8068904867555433	0.0	1.4417297667853914	-0.8077671398332369	0.0	1.3966171701193475	-0.7864755556777874	0.0	1.3559065708920892	-0.5914534764923775	0.0	1.4933390176178	-0.634886873613235	0.0	1.4533807577681095	-0.7625428825403117	0.0	1.5023682392209128	-0.797366001341524	0.0	1.4944396587197148	-0.7904278711893465	0.0	1.443701763412453	-0.7801587585622184	0.0	1.3579114582912613	-0.4277862645786603	0.0	1.404559872271824	-0.35356001776186363	0.0	1.4121288626133004	-0.4032974687722261	0.0	1.3440475662382607	-0.44986713403158773	0.0	1.3311076088786102	-0.543168554997791	0.0	1.3662726249024928	-0.6175572046581541	0.0	1.345725267449273	-0.446169070279981	0.0	1.3222075410086593	-0.528601446678208	0.0	1.3573649445973521	-0.6007489307699381	0.0
199	6.658555133079849	1.3442672158983173	-0.5935898072317495	0.0	1.3346329253748337	-0.597525271320363	0.0	1.495526555833057	-0.6475537498843662	0.0	1.417775866065627	-0.768132495946118	0.0	1.457162391096937	-0.8040987878805188	0.0	1.4417398436957996	-0.8047112019282179	0.0	1.3988345392936075	-0.7816284470695558	0.0	1.3591530362488213	-0.5908428176804829	0.0	1.4988424746917977	-0.6304552718147799	0.0	1.4576756835822873	-0.7577703148842805	0.0	1.5069531120623922	-0.7938942252021454	0.0	1.4987628319095028	-0.7869227590680509	0.0	1.4477540836074143	-0.7756523458650492	0.0	1.3657475596082693	-0.4301550956493281	0.0	1.4146827980681118	-0.3571674844961938	0.0	1.4200274318466892	-0.4078811177625841	0.0	1.3518639563800092	-0.4514824223346456	0.0	1.3414433730013966	-0.5474888031993764	0.0	1.3810225717116305	-0.6234200723284338	0.0	1.351345802537702	-0.4474482620957867	0.0	1.321877451258019	-0.5273498384699471	0.0	1.3588246765556098	-0.6006051283032037	0.0
200	6.6920152091254765	1.3485789827720516	-0.5936335926207015	0.0	1.339166111885152	-0.5972625784718291	0.0	1.501494143888693	-0.6466397703322866	0.0	1.4202368098575662	-0.7644838855326678	0.0	1.4578664123006266	-0.8016308903304593	0.0	1.4420233120584705	-0.8017246015305554	0.0	1.4012143610557928	-0.7771721826183755	0.0	1.3625299495051861	-0.5904091038563419	0.0	1.5035586225907014	-0.6276950085799957	0.0	1.4637108248651522	-0.754567871896958	0.0	1.5134630178170168	-0.7912012018294046	0.0	1.505166071192755	-0.7842909863563986	0.0	1.4535612257903279	-0.7728213734191114	0.0	1.3732705768360165	-0.43196103916350187	0.0	1.4238621095062023	-0.36013793996400945	0.0	1.4274587771379472	-0.41163073752353097	0.0	1.3594179901077168	-0.45269612520301844	0.0	1.3512124904053329	-0.5511626678241052	0.0	1.3956707791590295	-0.6275489027204235	0.0	1.3564375393610397	-0.44811060517069945	0.0	1.3203566697298252	-0.524747938777096	0.0	1.3590584650420778	-0.596132980460533	0.0
201	6.725475285171104	1.353182900750839	-0.5939210907372371	0.0	1.3439678816795453	-0.5972410849360613	0.0	1.5068586656699918	-0.6463839493036206	0.0	1.4227754862063178	-0.7614169018056484	0.0	1.458898636267306	-0.7998357714632818	0.0	1.4427313477529724	-0.7992894828074596	0.0	1.403560364428441	-0.7735264643912545	0.0	1.3662750917034325	-0.5903499383839426	0.0	1.5075805242135507	-0.6268961098723431	0.0	1.471842509465753	-0.7532755060716495	0.0	1.5225812485960648	-0.7894882976480325	0.0	1.514191368270143	-0.7827049229191159	0.0	1.4614681504928153	-0.7721031948120383	0.0	1.3803246565598408	-0.433306900102422	0.0	1.4319024840763417	-0.3625687996517036	0.0	1.4344545404880837	-0.41444431796862535	0.0	1.3664507665995766	-0.4537002086329305	0.0	1.3604232586809382	-0.5541846904949251	0.0	1.4097349743443235	-0.6299877604823267	0.0	1.3616155451976715	-0.44856759087695436	0.0	1.3218424198350367	-0.5236267215835269	0.0	1.3613280275024606	-0.5910145850586753	0.0
202	6.758935361216731	1.3580162555870163	-0.5945037726992942	0.0	1.3489186389991872	-0.5975788481691217	0.0	1.5113964586878965	-0.6465456989848845	0.0	1.4253451480129449	-0.7590210235944221	0.0	1.4602269644896662	-0.7989226935329095	0.0	1.4439097228342699	-0.7977455822464151	0.0	1.4058894530225354	-0.7708146678604154	0.0	1.3706139908938333	-0.590785820509294	0.0	1.5112112210307662	-0.6278512995389317	0.0	1.482040662644086	-0.7539831549958913	0.0	1.534383771683769	-0.7888301361281791	0.0	1.525911954828334	-0.7822236844904654	0.0	1.4714873836860827	-0.7734911831012874	0.0	1.386839129226865	-0.4342327674626794	0.0	1.438712840464538	-0.36453168263563035	0.0	1.441058525618045	-0.41632999017652467	0.0	1.3727074389329648	-0.4545279261757398	0.0	1.3692737923487768	-0.5565955469942481	0.0	1.4229768160852003	-0.63086853413456	0.0	1.3674398396000225	-0.44913085792113383	0.0	1.3297466588200573	-0.5256723559747929	0.0	1.3690982683378132	-0.5885317697491748	0.0
203	6.792395437262359	1.3630832701560964	-0.5954301193054136	0.0	1.3540456823619447	-0.5982791100243031	0.0	1.5153506008025446	-0.6468366410286486	0.0	1.4280012910405657	-0.7573047985062709	0.0	1.4617448725563043	-0.798848363148945	0.0	1.4455272742228014	-0.7971260388902623	0.0	1.4083065153457064	-0.7688660567418919	0.0	1.3756333326174388	-0.5918151857033782	0.0	1.5148309973127418	-0.6300323000023001	0.0	1.4939288719793071	-0.75645786803285	0.0	1.5483976839026599	-0.7890811905745635	0.0	1.5399670419354123	-0.7826980180183385	0.0	1.4832757234761733	-0.7765401095369999	0.0	1.3929213355027104	-0.4347593888569731	0.0	1.4444747271667369	-0.3660965793538363	0.0	1.4473894196476433	-0.41741853061374684	0.0	1.3782079627976074	-0.455100187969815	0.0	1.3781444622661418	-0.5584423860625372	0.0	1.4356400256573871	-0.6303673241565231	0.0	1.3741947211349737	-0.44993307847824027	0.0	1.3447516033006452	-0.5309060599830123	0.0	1.3840881242077454	-0.5903051758060107	0.0
204	6.825855513307986	1.3682907025705637	-0.5967461524904722	0.0	1.359381555337747	-0.5992984277574381	0.0	1.5191968777379197	-0.6470832081902457	0.0	1.430753074445914	-0.7561767164055915	0.0	1.4633867839039163	-0.7993262851860967	0.0	1.4475533339351507	-0.7971795701574208	0.0	1.4108329042217282	-0.7674063171612413	0.0	1.3810800633071263	-0.5934400470792123	0.0	1.5187040646606889	-0.63292978340478	0.0	1.5067405139372423	-0.7601376493349588	0.0	1.5635761969617477	-0.7898927707581667	0.0	1.5553776428148998	-0.7837910384129368	0.0	1.4961174693397938	-0.7804845388364406	0.0	1.3987655631571294	-0.4350311730933146	0.0	1.4495938220717837	-0.36731948881927123	0.0	1.453545486542222	-0.41795689388111495	0.0	1.3833381770867355	-0.4554126101570393	0.0	1.3874260449019333	-0.559706307206022	0.0	1.4482932939974016	-0.6286570826687147	0.0	1.3816233152490833	-0.4509211996967173	0.0	1.364383449406475	-0.537855980820889	0.0	1.4047470684395584	-0.5953981644804164	0.0
205	6.8593155893536135	1.3733741879240908	-0.5983980910981186	0.0	1.3647974522634665	-0.600556552184502	0.0	1.5233133492571571	-0.6473089847772505	0.0	1.4334639817203394	-0.7554964147515348	0.0	1.4651124827801172	-0.7999474956408942	0.0	1.4499251232108032	-0.7975112426134059	0.0	1.4133698544976243	-0.7662220982058132	0.0	1.3864394154342714	-0.5954855866993828	0.0	1.5229047205471178	-0.6361433388762958	0.0	1.5192608191967258	-0.7642771130106528	0.0	1.5783493974865068	-0.7908720732983303	0.0	1.5705123507474748	-0.7851289912735846	0.0	1.5088528877010752	-0.7844741644649079	0.0	1.404531461251546	-0.43530287890426045	0.0	1.4544554187136869	-0.36820261033557455	0.0	1.459522045387584	-0.4182065864106904	0.0	1.388639995325504	-0.45561194399277516	0.0	1.3973611317032975	-0.560322528870325	0.0	1.4614738134290466	-0.6259110667975811	0.0	1.3890673363552635	-0.45195610836141137	0.0	1.3846441286488997	-0.5444783581992871	0.0	1.4274305731028716	-0.6012426559582837	0.0
